<?xml version="1.0" encoding="utf-8"?>
<!-- Generator: Adobe Illustrator 26.0.2, SVG Export Plug-In . SVG Version: 6.00 Build 0)  -->
<svg version="1.1" id="Layer_1" xmlns="http://www.w3.org/2000/svg" xmlns:xlink="http://www.w3.org/1999/xlink" x="0px" y="0px"
	 viewBox="0 0 300 90" style="enable-background:new 0 0 300 90;" xml:space="preserve">
<style type="text/css">
	.st0{fill:#FFFFFF;}
	.st1{fill:#005288;}
</style>
<g>
	<g>
		<g>
			<path class="st0" d="M45,0C20.15,0,0,20.15,0,45c0,24.85,20.15,45,45,45c24.85,0,45-20.15,45-45C90,20.15,69.85,0,45,0z"/>
			<g>
				<path class="st1" d="M45,2.16C21.34,2.16,2.16,21.34,2.16,45c0,23.66,19.18,42.84,42.84,42.84c23.66,0,42.84-19.18,42.84-42.84
					C87.84,21.34,68.66,2.16,45,2.16z M45,86.58C22.03,86.58,3.42,67.96,3.42,45C3.42,22.04,22.03,3.42,45,3.42
					c22.96,0,41.58,18.62,41.58,41.58C86.58,67.96,67.96,86.58,45,86.58z"/>
			</g>
			<g>
				<g>
					<g>
						<path class="st1" d="M78.35,28.82c1.24-0.54,2.66-0.29,3.02,0.53c0.36,0.83-0.42,2.04-1.66,2.59
							c-1.25,0.55-2.67,0.3-3.03-0.53C76.32,30.58,77.1,29.37,78.35,28.82z M80.22,33.09c1.57-0.69,2.28-2.44,1.62-3.95
							c-0.66-1.51-2.43-2.17-4-1.48c-1.57,0.69-2.29,2.43-1.63,3.94C76.88,33.12,78.65,33.78,80.22,33.09z"/>
					</g>
					<g>
						<path class="st1" d="M78.03,37.18l-0.6-2.36l0.37-0.09l0.17,0.66l5.01-1.27l-0.17-0.66l0.36-0.09l0.91,3.58l0.24-0.06
							l0.12,0.47l-1.38,0.35l-0.12-0.46l0.63-0.16l-0.46-1.81l-2.05,0.52l0.35,1.39L82,37.03l0.13,0.47l-1.71,0.43l-0.13-0.47
							l0.61-0.15l-0.35-1.39l-2.29,0.58l0.15,0.58L78.03,37.18z"/>
					</g>
				</g>
				<g>
					<g>
						<path class="st1" d="M8.03,30.84l-0.22,0.72l3.23,0.96c0.97,0.29,1.48,0.81,1.61,1.64c0.06,0.43,0.03,0.88-0.1,1.33
							c-0.42,1.39-1.45,2.07-2.63,1.71l-3.47-1.03l-0.19,0.65l-0.36-0.11L6.6,34.3l0.36,0.11l-0.19,0.65l3.2,0.95
							c0.87,0.26,1.31,0.22,1.67-0.15c0.16-0.18,0.3-0.41,0.38-0.67c0.31-1.03-0.12-1.81-1.17-2.13l-3.2-0.95l-0.21,0.71l-0.37-0.11
							l0.59-1.99L8.03,30.84z"/>
					</g>
					<g>
						<path class="st1" d="M13.71,32.23c-0.13,0.31-0.48,0.45-0.79,0.32c-0.31-0.13-0.45-0.48-0.32-0.79
							c0.13-0.31,0.48-0.45,0.79-0.32C13.69,31.57,13.84,31.93,13.71,32.23z"/>
					</g>
					<g>
						<path class="st1" d="M14.83,29.67l-0.24,0.43l-1.41-0.79l0.24-0.43L14,29.21c0.48-0.19,0.73-0.4,0.95-0.78
							c0.27-0.48,0.18-1-0.23-1.23c-0.35-0.2-0.73-0.11-1.61,0.35c-0.92,0.49-1.05,0.54-1.4,0.61c-0.34,0.07-0.71-0.01-1.05-0.2
							c-0.86-0.48-1.08-1.44-0.54-2.39c0.17-0.3,0.36-0.52,0.65-0.75l-0.23-0.13l0.24-0.42l1.34,0.75l-0.24,0.42l-0.54-0.3
							c-0.4,0.21-0.59,0.38-0.75,0.67c-0.23,0.41-0.12,0.88,0.25,1.09c0.31,0.18,0.61,0.11,1.51-0.38c0.44-0.23,0.7-0.38,0.82-0.43
							c0.23-0.11,0.49-0.18,0.78-0.19c0.33-0.01,0.62,0.06,0.93,0.23c0.89,0.5,1.15,1.5,0.64,2.42c-0.26,0.45-0.53,0.73-0.95,0.97
							L14.83,29.67z"/>
					</g>
					<g>
						<path class="st1" d="M17.17,25.61c0,0.33-0.26,0.59-0.59,0.59c-0.33,0-0.59-0.26-0.59-0.59c0-0.33,0.26-0.59,0.59-0.59
							C16.92,25.03,17.17,25.29,17.17,25.61z"/>
					</g>
				</g>
				<g>
					<g>
						<path class="st1" d="M31.05,14.08l-3.79,1.95l-0.17-0.34l0.61-0.31l-2.36-4.59l-0.61,0.31l-0.17-0.34l3.28-1.69l-0.11-0.22
							l0.43-0.22L28.8,9.9l-0.42,0.22l-0.3-0.57l-1.66,0.85l0.97,1.88l1.27-0.66l-0.28-0.54l0.43-0.23l0.81,1.57l-0.43,0.23
							l-0.29-0.56l-1.28,0.66l1.01,1.97l1.73-0.89l-0.3-0.59l0.43-0.22L31.05,14.08z"/>
					</g>
					<g>
						<path class="st1" d="M34.7,12.76l-2.47,0.82l-0.12-0.36l0.65-0.21l-1.63-4.9l-0.65,0.21l-0.12-0.36l2.58-0.86
							c1.05-0.35,1.96,0.06,2.28,1.04c0.31,0.93-0.26,1.96-1.25,2.29c-0.14,0.05-0.24,0.07-0.48,0.1l-0.14-0.42
							c0.12-0.01,0.16-0.03,0.24-0.05c0.58-0.19,0.76-0.72,0.51-1.47c-0.26-0.8-0.72-1.11-1.33-0.91l-0.51,0.17l1.59,4.78l0.72-0.24
							L34.7,12.76z"/>
					</g>
					<g>
						<path class="st1" d="M37.62,9.49l0.51-2.36l1.22,2.06L37.62,9.49z M41.99,10.77l-0.37,0.06l-3.17-5.26l-0.54,0.09l-1.3,6.04
							l-0.55,0.09l0.06,0.37l1.83-0.32l-0.06-0.37l-0.71,0.12l0.33-1.53l2.15-0.37l0.8,1.34l-0.62,0.11l0.06,0.37l2.16-0.37
							L41.99,10.77z"/>
					</g>
					<g>
						<path class="st1" d="M44.54,5.73l0.57,0c0.64,0,1,0.41,1,1.13c0,0.71-0.42,1.2-1.04,1.2l-0.53,0L44.54,5.73z M48.18,10.77
							l-0.37,0c-0.18,0-0.29-0.08-0.49-0.4l-1.27-1.96c0.84-0.26,1.26-0.78,1.26-1.58c0-0.48-0.14-0.86-0.44-1.16
							c-0.32-0.32-0.75-0.44-1.52-0.44l-2.65-0.01V5.6l0.68,0l-0.01,5.17l-0.68,0l0,0.38l2.51,0.01v-0.38l-0.67,0l0.01-2.26l0.24,0
							l1.34,2.11c0.3,0.48,0.39,0.53,0.92,0.53l1.14,0L48.18,10.77z"/>
					</g>
					<g>
						<path class="st1" d="M52.24,11.87l-2.85-0.48l0.06-0.37l0.86,0.14l0.84-4.94l-1.53-0.26l-0.12,0.73l-0.49-0.08l0.25-1.5
							l0.49,0.08L49.7,5.44l4.19,0.71l0.04-0.25l0.48,0.08l-0.25,1.5L53.68,7.4l0.12-0.73l-1.52-0.26l-0.83,4.94l0.85,0.14
							L52.24,11.87z"/>
					</g>
					<g>
						<path class="st1" d="M60.62,14.7l-2.48-0.96l0.14-0.35l0.7,0.27l1.4-3.61l-3.41,3.33l-0.47-4.75l-1.37,3.54l0.7,0.27
							l-0.14,0.35l-1.93-0.75l0.14-0.35l0.7,0.27l1.87-4.82l-0.7-0.27l0.14-0.35l1.48,0.57l0.47,4.66l3.25-3.21l1.65,0.64
							l-0.14,0.35l-0.7-0.27l-1.87,4.81l0.7,0.27L60.62,14.7z"/>
					</g>
					<g>
						<path class="st1" d="M64.98,17.55l-3.6-2.3l0.2-0.32l0.57,0.37l2.78-4.35l-0.58-0.37l0.2-0.32l3.11,1.99l0.13-0.21l0.41,0.26
							l-0.77,1.2l-0.4-0.26l0.35-0.54l-1.57-1l-1.14,1.78l1.21,0.77l0.33-0.51L66.65,14l-0.95,1.49l-0.41-0.25l0.34-0.53l-1.21-0.77
							l-1.19,1.87l1.64,1.05l0.36-0.56l0.41,0.26L64.98,17.55z"/>
					</g>
					<g>
						<path class="st1" d="M25.21,13.88c-0.98-1.34-2.81-1.6-4.17-0.59l-2.25,1.66l0.22,0.3l0.55-0.4L22.6,19
							c0.15,0.06,0.29,0.11,0.43,0.16l1.5-1.1c0.71-0.52,1.08-1.09,1.21-1.86C25.88,15.37,25.69,14.55,25.21,13.88z M24.06,17.8
							l-0.59,0.43l-2.91-3.97l0.61-0.45c0.85-0.62,2.24-0.24,3.02,0.82C25.02,15.77,24.97,17.13,24.06,17.8z"/>
					</g>
					<g>
						<path class="st1" d="M72.62,16.32l-0.25,0.28l0.52,0.48l-2.53,2.78L71,14.84l-1.32-1.2l-0.25,0.28l0.48,0.43l-0.1,0.53
							l-3.17,3.48l-0.55-0.5l-0.25,0.28l1.5,1.37l0.25-0.28l-0.52-0.48l2.64-2.89l-0.56,4.6c0.55-0.14,1.13-0.3,1.76-0.48
							c0.05-0.01,0.1-0.03,0.15-0.04l2.26-2.48l0.56,0.51l0.26-0.28L72.62,16.32z"/>
					</g>
					<g>
						<path class="st1" d="M78.65,22.84L78.46,23l-2.58-3.38l0.2-0.15l-0.3-0.39L74.56,20l0.3,0.39l0.59-0.45l0.94,1.23l-3.98,3.04
							l-0.21-0.27c-0.11,0.06-0.23,0.12-0.35,0.17l1.48,1.93l0.3-0.23l-0.52-0.68l3.98-3.04l0.94,1.23l-0.59,0.45l0.3,0.39
							l1.21-0.93L78.65,22.84z"/>
					</g>
				</g>
				<g>
					<g>
						<path class="st1" d="M52.44,84.42l-0.48,0.11l-0.35-1.58l0.48-0.11l0.14,0.65c0.46,0.23,0.78,0.28,1.22,0.18
							c0.54-0.12,0.87-0.53,0.77-0.98c-0.09-0.39-0.4-0.62-1.33-0.97c-0.98-0.36-1.1-0.42-1.39-0.63c-0.28-0.21-0.47-0.53-0.55-0.92
							c-0.21-0.96,0.36-1.76,1.43-1.99c0.34-0.07,0.63-0.08,0.99-0.01l-0.06-0.26l0.47-0.1l0.33,1.5l-0.47,0.1l-0.13-0.6
							c-0.42-0.16-0.67-0.19-1-0.12c-0.46,0.1-0.74,0.5-0.65,0.91c0.08,0.35,0.33,0.53,1.28,0.87c0.46,0.18,0.75,0.28,0.86,0.33
							c0.23,0.1,0.46,0.25,0.66,0.45c0.23,0.24,0.37,0.51,0.44,0.85c0.22,1-0.35,1.86-1.38,2.08c-0.51,0.11-0.9,0.09-1.35-0.06
							L52.44,84.42z"/>
					</g>
					<g>
						<path class="st1" d="M61.55,81.55l-3.97,1.56l-0.14-0.35l0.63-0.25l-1.89-4.81l-0.63,0.25l-0.14-0.35l3.44-1.35l-0.09-0.23
							l0.45-0.18l0.52,1.33l-0.44,0.17l-0.23-0.6l-1.74,0.68l0.77,1.97l1.33-0.52l-0.22-0.57l0.45-0.19l0.64,1.64l-0.45,0.18
							l-0.23-0.58l-1.34,0.52l0.81,2.06l1.81-0.71l-0.24-0.62l0.45-0.18L61.55,81.55z"/>
					</g>
					<g>
						<path class="st1" d="M67.53,77.91c-0.51,0.63-0.86,0.96-1.45,1.32c-1.62,0.98-3.43,0.59-4.35-0.94
							c-0.92-1.51-0.45-3.34,1.09-4.27c0.5-0.3,0.88-0.44,1.44-0.52l-0.19-0.32l0.42-0.26l0.83,1.37l-0.42,0.26l-0.3-0.49
							c-0.62-0.04-0.92,0.02-1.33,0.27c-1.06,0.65-1.27,1.99-0.5,3.26c0.75,1.24,2.16,1.71,3.22,1.07c0.38-0.23,0.61-0.48,0.83-0.93
							l-0.35-0.58l0.43-0.26L67.53,77.91z"/>
					</g>
					<g>
						<path class="st1" d="M70.23,68.65l-0.56,0.51l2.27,2.49c0.68,0.75,0.85,1.45,0.53,2.23c-0.17,0.4-0.43,0.77-0.77,1.08
							c-1.07,0.98-2.31,1.03-3.14,0.11l-2.44-2.68l-0.5,0.46l-0.25-0.28l1.85-1.69l0.25,0.28l-0.5,0.45l2.26,2.47
							c0.61,0.67,1.01,0.86,1.51,0.74c0.23-0.07,0.47-0.2,0.67-0.38c0.79-0.73,0.83-1.62,0.09-2.43l-2.25-2.46l-0.55,0.5l-0.26-0.29
							l1.54-1.4L70.23,68.65z"/>
					</g>
					<g>
						<path class="st1" d="M80.3,63.42l-1.2,2.21l-0.33-0.18l0.32-0.6l-4.54-2.46l-0.33,0.6l-0.33-0.18l1.19-2.21l0.33,0.18
							l-0.32,0.59l4.54,2.46l0.32-0.59L80.3,63.42z"/>
					</g>
					<g>
						<path class="st1" d="M82.59,58.06l-1.02,2.7l-0.35-0.13l0.31-0.81l-4.69-1.77l-0.55,1.45l0.7,0.26l-0.17,0.46l-1.43-0.54
							l0.17-0.46l0.24,0.09l1.5-3.98l-0.23-0.09l0.17-0.46l1.43,0.54l-0.17,0.46l-0.7-0.26l-0.54,1.44l4.69,1.77l0.3-0.81
							L82.59,58.06z"/>
					</g>
					<g>
						<path class="st1" d="M84.18,51.46l-0.48,2.46l-0.37-0.07l0.13-0.66l-2.43-0.48l-2.98,1.23l-0.11,0.55l-0.37-0.07l0.48-2.46
							l0.37,0.07l-0.13,0.65l2.17-0.87l-1.7-1.55l-0.15,0.75l-0.37-0.07l0.4-2.05l0.37,0.07l-0.12,0.63l2.12,1.94l2.66,0.52
							l0.13-0.67L84.18,51.46z"/>
					</g>
					<g>
						<path class="st1" d="M78.14,66.65l-0.22,0.3c-0.11,0.14-0.23,0.18-0.61,0.16l-2.33-0.14c0.29-0.83,0.12-1.47-0.52-1.95
							c-0.38-0.28-0.78-0.4-1.19-0.34c-0.45,0.07-0.8,0.34-1.26,0.96l-1.58,2.12l0.3,0.22l0.41-0.55l4.15,3.08l-0.41,0.55l0.3,0.22
							l1.5-2.02l-0.3-0.22l-0.4,0.54l-1.81-1.35l0.14-0.19l2.49,0.18c0.56,0.04,0.66,0,0.98-0.43l0.68-0.91L78.14,66.65z
							 M71.93,66.59l0.34-0.45c0.38-0.51,0.93-0.56,1.51-0.13c0.57,0.42,0.71,1.05,0.35,1.55l-0.32,0.42L71.93,66.59z"/>
					</g>
				</g>
				<g>
					<g>
						<path class="st1" d="M7.08,57.01l-0.6-2.44l0.37-0.09l0.16,0.65l2.29-0.56l-0.69-2.83L6.32,52.3l0.16,0.65l-0.37,0.09
							l-0.6-2.44l0.37-0.09l0.16,0.66l5.02-1.23l-0.16-0.66l0.37-0.09l0.6,2.44l-0.37,0.09l-0.16-0.65l-2.21,0.54l0.69,2.83
							l2.21-0.54l-0.16-0.65l0.37-0.09l0.6,2.44l-0.37,0.09l-0.16-0.66l-5.02,1.23l0.16,0.66L7.08,57.01z"/>
					</g>
					<g>
						<path class="st1" d="M10.5,58.37c1.23-0.56,2.66-0.33,3.03,0.48c0.37,0.82-0.39,2.05-1.62,2.61
							c-1.24,0.56-2.66,0.33-3.04-0.49C8.5,60.16,9.26,58.94,10.5,58.37z M12.43,62.61c1.56-0.71,2.24-2.47,1.56-3.97
							c-0.68-1.5-2.46-2.13-4.02-1.42c-1.56,0.71-2.26,2.47-1.57,3.97C9.09,62.69,10.88,63.32,12.43,62.61z"/>
					</g>
					<g>
						<path class="st1" d="M14.71,71.13l-1.56-2.16l0.3-0.22l0.44,0.61l3.13-2.27l-4.67,0.95l2.18-4.25l-3.07,2.23l0.44,0.61
							l-0.31,0.22l-1.22-1.68l0.31-0.22l0.44,0.61l4.18-3.03l-0.44-0.61l0.3-0.22l0.93,1.28l-2.12,4.17l4.48-0.94l1.04,1.44
							l-0.31,0.22l-0.44-0.61l-4.18,3.03l0.44,0.61L14.71,71.13z"/>
					</g>
					<g>
						<path class="st1" d="M19.38,75.72l-3.14-2.89l0.26-0.28l0.5,0.46l3.5-3.8l-0.5-0.46l0.25-0.28l2.72,2.5l0.17-0.18l0.36,0.33
							l-0.97,1.05l-0.35-0.32l0.44-0.48l-1.37-1.26l-1.43,1.56l1.06,0.97l0.41-0.45l0.36,0.32l-1.2,1.3l-0.36-0.32l0.43-0.46
							l-1.05-0.97l-1.5,1.63L19.38,75l0.45-0.49l0.36,0.33L19.38,75.72z"/>
					</g>
					<g>
						<path class="st1" d="M24.72,79.38l-3.51-2.36l0.21-0.31l0.57,0.38l2.88-4.29l-0.57-0.38l0.21-0.31l2.08,1.4l-0.21,0.31
							l-0.56-0.37l-2.8,4.16l1.58,1.07l0.37-0.55l0.4,0.27L24.72,79.38z"/>
					</g>
					<g>
						<path class="st1" d="M28.3,78.62l1.75-1.67l-0.15,2.39L28.3,78.62z M31.18,82.13l-0.34-0.16l0.35-6.14l-0.5-0.23l-4.48,4.26
							l-0.51-0.23l-0.16,0.34l1.69,0.77l0.16-0.34l-0.65-0.3l1.13-1.08l1.98,0.9l-0.1,1.55l-0.57-0.26l-0.16,0.34l1.99,0.91
							L31.18,82.13z"/>
					</g>
					<g>
						<path class="st1" d="M37.39,84.24l-0.61-0.15l-2.01-5l-0.91,3.81l0.69,0.17l-0.09,0.37l-1.97-0.47l0.09-0.37l0.72,0.17
							l1.1-4.58l-0.17-0.51l-0.63-0.15l0.09-0.37l1.74,0.42l1.86,4.7l0.88-3.65l-0.69-0.16l0.09-0.37l1.97,0.47l-0.09,0.37
							l-0.73-0.18L37.39,84.24z"/>
					</g>
					<g>
						<path class="st1" d="M43.21,78.77l-2.8-0.1l-0.01,0.38l0.68,0.02l-0.18,5.16h0l-0.68-0.02l-0.01,0.38l2.79,0.1l-0.01,0h0.01
							c0.88,0.03,1.52-0.19,2.11-0.71c0.63-0.57,0.99-1.33,1.02-2.15C46.17,80.17,44.9,78.83,43.21,78.77z M44.85,81.78
							c-0.05,1.41-0.94,2.44-2.07,2.4l-0.73-0.03l0.18-4.92l0.76,0.03C44.04,79.3,44.9,80.47,44.85,81.78z"/>
					</g>
				</g>
			</g>
		</g>
		<g>
			<g>
				<g>
					<path class="st1" d="M72.34,28.83c-0.5,0.17-1.01,0.31-1.5,0.42c2.8,4.59,4.42,9.98,4.42,15.75
						c0,16.71-13.55,30.25-30.25,30.25C28.3,75.25,14.75,61.71,14.75,45c0-6.02,1.76-11.63,4.79-16.34
						c-0.48-0.14-0.95-0.32-1.43-0.55C15.04,33,13.25,38.79,13.25,45c0,17.54,14.22,31.75,31.75,31.75
						c17.54,0,31.75-14.22,31.75-31.75C76.76,39.09,75.15,33.57,72.34,28.83z"/>
				</g>
				<g>
					<path class="st1" d="M27.42,20.38c4.96-3.55,11.03-5.64,17.59-5.64c7.33,0,14.05,2.6,19.28,6.94c0.59-0.17,1.17-0.32,1.75-0.47
						c-5.6-4.96-12.97-7.97-21.04-7.97c-7.23,0-13.9,2.42-19.24,6.5c0.25,0.09,0.51,0.18,0.76,0.28
						C26.83,20.14,27.13,20.26,27.42,20.38z"/>
				</g>
			</g>
			<g>
				<g>
					<path class="st1" d="M34.14,35.98c-0.64-0.33-1.2-0.71-1.8-1.26c-1.93-1.76-2.39-3.61-1.82-5.74c0.34-1.26,0.86-1.9,0.68-3.22
						c-0.1-0.76-0.64-1.36-1.17-1.88c-1.29-1.24-2.82-2.01-5.08-2.77c-1.4-0.47-5.46-1.73-7.25-3.35c-0.41,1.19,0.46,2.78,1.49,2.99
						c-0.91,0.09-1.7,0.57-2.06,1.09c0.69,0.8,2.07,1.63,3.2,1.65c-0.53,0.35-1.16,1.1-1.38,1.52c0.98,0.52,2.55,0.96,3.76,0.88
						c-0.51,0.41-0.95,0.92-1.23,1.39c0.82,0.37,2.4,0.91,3.91,1.02c-0.56,0.27-1.35,1.22-1.76,1.81c0.85,0.38,2.69,0.61,3.83,0.72
						c-0.82,0.43-1.67,1.29-2.14,2.06c0.83,0.4,2.38,0.84,3.66,0.8c-0.63,0.6-1.04,1.33-1.28,2.04c0.96,0.2,1.98,0.2,3.15,0.04
						c-0.71,0.9-1,2.09-1.1,2.95c0.95-0.03,2.22-0.24,3.11-0.78c-0.2,0.73-0.15,1.71,0.16,2.41c0.37-0.08,0.81-0.24,1.28-0.5
						C34.24,38.51,34.18,37.12,34.14,35.98z"/>
				</g>
				<g>
					<path class="st1" d="M72.92,19.95c-1.79,1.62-4.66,2.06-7.67,3.05c-2.27,0.75-3.67,1.19-5.7,2.8c-0.58,0.46-1.13,1.14-1.07,2.3
						c0.07,1.3,0.28,1.85,0.31,3.67c0.02,1.29-0.42,2.33-0.96,2.94c-0.57,0.65-1.32,1.21-1.98,1.56c-0.04,1.1-0.09,2.21-0.15,3.49
						c0.47,0.26,1.08,0.5,1.45,0.58c0.31-0.7,0.36-1.68,0.16-2.41c0.89,0.54,2.16,0.75,3.11,0.78c-0.1-0.85-0.39-2.04-1.1-2.95
						c1.17,0.16,2.18,0.15,3.15-0.04c-0.24-0.71-0.65-1.44-1.28-2.04c1.27,0.04,2.83-0.4,3.66-0.8c-0.47-0.78-1.33-1.63-2.14-2.06
						c1.14-0.11,3.03-0.34,3.88-0.72c-0.41-0.58-1.26-1.54-1.81-1.82c1.51-0.11,3.1-0.65,3.91-1.02c-0.29-0.47-0.73-0.99-1.23-1.39
						c1.42-0.1,2.77-0.36,3.76-0.88c-0.21-0.42-0.85-1.16-1.38-1.52C72.86,22.65,72.91,21.13,72.92,19.95z"/>
				</g>
				<g>
					<path class="st1" d="M60.16,23.16c-4.3-2.99-9.53-4.74-15.16-4.74c-5.14,0-9.93,1.46-14,3.98c1.05,0.82,1.68,1.68,1.83,2.59
						c0.13,0.79,0.23,1.74-0.23,3.13c-0.48,1.47-0.75,2.99,0.34,4.52c1.08,1.53,2.49,2.19,3.65,2.41l0,0
						c1.52-0.27,3.21-0.49,4.9-0.62l0,0c0.22-0.71,0.87-1.33,1.52-1.84c0.94-0.74,0.74-1.38,0.51-1.88c-0.17-0.39-0.51-0.71-1-0.96
						c-0.43-0.22-1.98-0.38-1.94,0.61c-0.25-0.36-0.46-0.85-0.31-1.47c0.21-0.87,1.63-1.09,1.98-1.06c-0.27-0.23-0.1-0.61,0.52-0.78
						c0.76-0.21,1.47-0.24,2.16-0.22c1.42,0.04,1.65,0.38,2.37,1.03c0.87,0.78,2.02,1.04,2.48,0.58c-0.33,0.74-1.36,1.14-2.03,1.02
						c0.32,1.03,0.44,1.92,0.56,3c0.05,0.49,0.15,1.31,0.29,1.99c1.91,0.16,3.83,0.42,5.5,0.74l0,0c0.69-0.2,1.41-0.61,2.05-1.35
						c0.61-0.71,1.17-1.6,0.94-3.86c-0.06-0.63-0.38-2.26-0.34-3.02C56.86,25.21,58.14,24.08,60.16,23.16z"/>
				</g>
				<g>
					<path class="st1" d="M42.49,27.91c0.26,0.2,0.42,0.22,0.51,0.2c0.01,0.05,0.09,0.11,0.11,0.13c0.06,0.05,0.09,0.1,0.1,0.15
						c0.12-0.05,0.44-0.18,0.73-0.28c0.29-0.11,0.7-0.23,0.7-0.23C43.38,27.62,43.19,28,42.49,27.91z"/>
				</g>
			</g>
			<g>
				<g>
					<g>
						<path class="st1" d="M44.26,48.93l-0.53-0.26l-0.34-0.9l-0.78-0.34l-0.87-0.78l-0.52,0.57l-0.77,0.18l-0.41,0.66l-0.63,0.66
							l-0.85,0.45l-0.59,0.99l-0.33,0.44l-0.57,0.45l-0.32-0.33l-0.34,0.32l-0.42,0.78c-0.22-0.58-0.36-1.04-0.43-1.98
							c-0.12-1.74-0.25-3.92-0.37-6.16c2.87-0.62,6.52-1.03,9.48-1.06v6.77C44.53,49.32,44.4,49.26,44.26,48.93z"/>
					</g>
					<g>
						<path class="st1" d="M44.67,52.19h-8.53c0.13,0.26,0.27,0.51,0.44,0.74c0.62,0.86,1.49,1.5,2.6,1.84
							c1.51,0.46,2.47,0.76,3.17,0.99l0.83,0.26c0.68,0.21,1.16,0.52,1.5,0.86V52.19z"/>
					</g>
					<g>
						<path class="st1" d="M53.68,48.89c0.23-0.19,0.5-0.41,0.86-0.53c0.05-0.79,0.1-1.65,0.15-2.53c-0.09,0.06-0.19,0.14-0.31,0.24
							c-0.41,0.33-0.92,0.74-1.81,0.74c-0.84,0-1.38-0.33-1.82-0.6c-0.36-0.22-0.64-0.39-1.06-0.39c-0.46,0-0.86,0.24-1.28,0.49
							c-0.45,0.27-0.97,0.58-1.59,0.58c-0.64,0-1.11-0.2-1.49-0.41v2.4c0.09,0.05,0.17,0.1,0.25,0.15c0.38,0.24,0.71,0.44,1.24,0.44
							c0.32,0,0.65-0.19,1.03-0.42c0.51-0.3,1.08-0.65,1.85-0.65c0.73,0,1.21,0.3,1.64,0.56c0.38,0.24,0.71,0.44,1.24,0.44
							C53.07,49.39,53.34,49.17,53.68,48.89z"/>
					</g>
					<g>
						<path class="st1" d="M46.82,54.35c-0.64,0-1.11-0.2-1.49-0.41v2.93c0.33-0.34,0.81-0.65,1.49-0.86l0.83-0.26
							c0.7-0.22,1.66-0.52,3.17-0.99c0.44-0.13,0.84-0.32,1.21-0.54c-0.55-0.1-0.95-0.35-1.28-0.55c-0.36-0.22-0.64-0.39-1.06-0.39
							c-0.46,0-0.86,0.24-1.28,0.49C47.96,54.04,47.45,54.35,46.82,54.35z"/>
					</g>
					<g>
						<path class="st1" d="M53.68,45.21c0.28-0.23,0.61-0.49,1.08-0.6c0.02-0.31,0.03-0.61,0.05-0.92
							c-2.87-0.62-6.52-1.03-9.49-1.06v2.56c0.09,0.05,0.17,0.1,0.25,0.15c0.38,0.23,0.71,0.44,1.24,0.44c0.32,0,0.65-0.2,1.03-0.42
							c0.51-0.3,1.08-0.65,1.85-0.65c0.73,0,1.21,0.3,1.64,0.56c0.38,0.24,0.71,0.44,1.24,0.44C53.07,45.71,53.34,45.49,53.68,45.21
							z"/>
					</g>
					<g>
						<path class="st1" d="M45.33,50.16v2.5c0.09,0.05,0.17,0.1,0.25,0.15c0.38,0.24,0.71,0.44,1.24,0.44
							c0.32,0,0.65-0.19,1.03-0.42c0.51-0.3,1.08-0.65,1.85-0.65c0.73,0,1.21,0.3,1.64,0.56c0.38,0.24,0.71,0.44,1.24,0.44
							c0.41,0,0.66-0.14,0.93-0.35c0.55-0.81,0.87-1.81,0.94-2.98c0-0.05,0.01-0.1,0.01-0.15c-0.02,0.02-0.05,0.04-0.07,0.06
							c-0.41,0.33-0.92,0.74-1.81,0.74c-0.84,0-1.38-0.33-1.82-0.6c-0.36-0.22-0.64-0.39-1.06-0.39c-0.46,0-0.86,0.24-1.28,0.49
							c-0.45,0.27-0.97,0.58-1.59,0.58C46.17,50.57,45.71,50.37,45.33,50.16z"/>
					</g>
				</g>
				<g>
					<g>
						<path class="st1" d="M35.15,43.04c-0.14-2.49-0.26-5-0.33-6.98c3.02-0.69,7.03-1.14,10.18-1.14s7.16,0.45,10.18,1.14
							c-0.07,1.98-0.19,4.49-0.33,6.98c-2.85-0.6-6.62-1.05-9.85-1.05C41.76,41.98,38,42.43,35.15,43.04z"/>
					</g>
					<polygon class="st0" points="37.13,37.7 37.25,37.16 36.75,36.94 37.29,36.88 37.35,36.34 37.57,36.84 38.1,36.73 37.69,37.09 
						37.97,37.57 37.5,37.29 					"/>
					<polygon class="st0" points="40.45,37.26 39.99,36.96 39.61,37.36 39.75,36.82 39.26,36.58 39.8,36.54 39.88,36 40.09,36.51 
						40.62,36.42 40.2,36.77 					"/>
					<polygon class="st0" points="42.94,37.07 42.5,36.75 42.1,37.12 42.26,36.6 41.79,36.32 42.33,36.32 42.44,35.78 42.61,36.3 
						43.15,36.24 42.72,36.57 					"/>
					<polygon class="st0" points="45.43,37.02 45.01,36.67 44.59,37.02 44.78,36.5 44.33,36.2 44.87,36.23 45.01,35.7 45.15,36.23 
						45.69,36.2 45.24,36.5 					"/>
					<polygon class="st0" points="52.52,37.3 52.05,37.57 52.32,37.1 51.92,36.73 52.45,36.84 52.67,36.34 52.73,36.89 53.27,36.94 
						52.77,37.17 52.88,37.71 					"/>
					<polygon class="st0" points="49.81,36.77 49.39,36.43 49.93,36.51 50.13,36 50.21,36.54 50.75,36.58 50.26,36.82 50.4,37.36 
						50.02,36.97 49.56,37.26 					"/>
					<polygon class="st0" points="47.3,36.57 46.86,36.24 47.41,36.3 47.58,35.78 47.69,36.32 48.23,36.33 47.76,36.6 47.92,37.12 
						47.52,36.75 47.08,37.07 					"/>
					<polygon class="st0" points="37.5,41.73 37.61,41.2 37.11,40.97 37.66,40.91 37.72,40.37 37.94,40.87 38.47,40.77 38.06,41.13 
						38.33,41.61 37.86,41.33 					"/>
					<polygon class="st0" points="40.73,41.32 40.27,41.02 39.88,41.41 40.02,40.88 39.54,40.63 40.08,40.6 40.17,40.06 
						40.36,40.57 40.9,40.49 40.48,40.83 					"/>
					<polygon class="st0" points="43.12,41.15 42.68,40.83 42.28,41.2 42.44,40.67 41.97,40.4 42.51,40.4 42.62,39.86 42.79,40.38 
						43.33,40.32 42.89,40.65 					"/>
					<polygon class="st0" points="45.51,41.11 45.09,40.76 44.67,41.11 44.86,40.59 44.41,40.29 44.95,40.32 45.09,39.79 
						45.23,40.32 45.77,40.29 45.32,40.59 					"/>
					<polygon class="st0" points="52.32,41.36 51.85,41.64 52.12,41.16 51.72,40.79 52.25,40.9 52.47,40.4 52.53,40.94 53.07,41 
						52.57,41.23 52.69,41.76 					"/>
					<polygon class="st0" points="49.71,40.85 49.29,40.51 49.82,40.59 50.02,40.08 50.1,40.62 50.65,40.65 50.16,40.9 50.3,41.43 
						49.92,41.04 49.46,41.34 					"/>
					<polygon class="st0" points="47.29,40.66 46.85,40.33 47.39,40.39 47.57,39.87 47.67,40.41 48.22,40.42 47.74,40.69 
						47.91,41.21 47.51,40.84 47.06,41.16 					"/>
					<polygon class="st0" points="38.68,39.35 38.81,38.82 38.32,38.58 38.86,38.54 38.94,37.99 39.14,38.5 39.68,38.41 
						39.26,38.76 39.52,39.25 39.06,38.96 					"/>
					<polygon class="st0" points="36.3,39.73 36.41,39.19 35.91,38.97 36.45,38.91 36.5,38.36 36.73,38.86 37.26,38.75 36.86,39.12 
						37.14,39.59 36.66,39.32 					"/>
					<polygon class="st0" points="41.91,39.02 41.46,38.71 41.06,39.09 41.22,38.56 40.74,38.3 41.28,38.28 41.38,37.74 
						41.56,38.26 42.1,38.18 41.67,38.52 					"/>
					<polygon class="st0" points="44.29,38.9 43.86,38.57 43.45,38.93 43.63,38.41 43.16,38.13 43.7,38.14 43.83,37.6 43.98,38.13 
						44.53,38.08 44.08,38.4 					"/>
					<polygon class="st0" points="46.68,38.93 46.27,38.57 45.83,38.91 46.05,38.4 45.6,38.08 46.14,38.13 46.3,37.6 46.42,38.14 
						46.97,38.13 46.5,38.41 					"/>
					<polygon class="st0" points="53.47,39.34 52.99,39.61 53.27,39.13 52.88,38.76 53.4,38.88 53.64,38.38 53.68,38.93 54.22,39 
						53.72,39.21 53.82,39.75 					"/>
					<polygon class="st0" points="50.86,38.78 50.45,38.42 50.98,38.52 51.19,38.01 51.26,38.55 51.8,38.6 51.31,38.84 51.44,39.37 
						51.07,38.97 50.6,39.26 					"/>
					<polygon class="st0" points="48.45,38.53 48.03,38.19 48.56,38.27 48.75,37.75 48.85,38.29 49.39,38.31 48.91,38.57 
						49.06,39.1 48.67,38.72 48.22,39.03 					"/>
				</g>
			</g>
			<g>
				<g>
					<g>
						<g>
							<g>
								<g>
									<path class="st1" d="M73.61,48.69l-2.2,0.68l0.5,0.2l-0.77,0.49c0.09-0.45,0.16-0.9,0.22-1.36l1.21-1.01l0.03,0.54
										l1.36-1.86l-2.09,0.96l0.52,0.14l-0.97,0.81c0.07-0.55,0.12-1.12,0.15-1.68l1.19-1.32l0.1,0.53l1.1-2.02L72.01,45
										l0.53,0.06l-0.95,1.02c0.01-0.35,0.02-0.7,0.02-1.06c0-2.65-0.39-5.22-1.11-7.64c-1.21,0.11-2.41-0.27-2.99-0.39
										c1.54,0.91,2.08,1.88,2.3,3c-1.23,0.28-2.88-0.13-3.79-0.83c0.88,0.77,1.44,1.99,1.48,3.24c-1.27,0.06-2.45-0.53-3.31-1.4
										c0.56,0.62,1.26,2.18,1.09,3.29c-1.06-0.11-2.31-0.81-2.99-1.64c0.56,1.24,0.83,2.25,0.77,3.37
										c-1.06-0.2-1.86-0.49-2.8-1.4c0.46,1.14,0.62,2.28,0.52,3.21c-1.22-0.43-2.03-0.92-2.72-2.07c0.36,1.01,0.6,2.34,0.35,3.12
										c-1.03-0.31-1.71-0.93-2.25-1.98c0.53,1.12,0.46,2.42,0.29,3.1c-0.43-0.09-1-0.39-1.3-0.72c-0.01,0.2-0.03,0.4-0.04,0.59
										c-0.05,0.76-0.2,1.47-0.45,2.12c0.08,0.1,0.29,0.34,0.29,0.35c0.54,0.58,1.28,1.14,1.87,1.32
										c-0.25,0.04-0.6,0.25-0.95,0.29c0.39,0.44,1.18,0.54,1.67,1.03c-0.38,0.04-0.47,0.32-0.93,0.27
										c0.88,0.68,1.68,0.7,2.13,0.75c0.18,0.02,0.77,0.08,1.15,0.02c0.46-0.07,0.93,0.12,1.19,0.25l4.81-9.75l-0.53,0.09
										l1.51-1.74l-0.47,2.26l-0.25-0.48l-4.84,9.8c0.09,0.11,0.13,0.25,0.14,0.38c0.01,0,0.03,0,0.04,0l0.18-0.15l0,0l7.79-6.16
										l-0.52-0.14l2.11-0.93l-1.39,1.84l-0.02-0.54l-7.73,6.1c0.21,0.04,0.4,0.11,0.45,0.2c0.13,0.21,0.1,0.32-0.03,0.68
										c-0.12,0.35-0.2,0.47-0.44,0.5c-0.06,0.01-0.19,0.02-0.32-0.03c0.07,0.05,0.12,0.09,0.15,0.18
										c0.04,0.09,0.09,0.26-0.19,0.58c-0.25,0.29-0.49,0.39-0.69,0.28c-0.11-0.06-0.15-0.14-0.2-0.19
										c0.03,0.08,0.06,0.16,0.07,0.25c0.05,0.29-0.17,0.4-0.45,0.49c-0.52,0.19-0.78,0.1-0.9-0.08c-0.26-0.4-0.12-0.91,0.06-1
										c-0.04,0.16-0.04,0.32-0.01,0.51c0.02,0.15,0.1,0.41,0.38,0.38c0.15-0.01,0.43-0.08,0.6-0.19
										c0.12-0.08,0.13-0.28,0.06-0.46c-0.03-0.09-0.06-0.21-0.17-0.3c0.18,0.05,0.28,0.14,0.41,0.25
										c0.13,0.11,0.34,0.14,0.46,0.01c0.15-0.16,0.24-0.27,0.29-0.38c0.13-0.28-0.22-0.49-0.43-0.61
										c0.36,0.02,0.42,0.16,0.72,0.11c0.29-0.04,0.38-0.51,0.38-0.67c0-0.11-0.13-0.23-0.3-0.27c-0.12-0.03-0.28-0.03-0.39-0.03
										c-0.01,0.04-0.01,0.07-0.02,0.1c-0.04,0.14-0.1,0.3-0.34,0.43c-0.14,0.04-0.23,0.05-0.09-0.05
										c0.13-0.09,0.24-0.66-0.05-0.88c-0.21-0.16-0.52-0.29-0.88-0.27c-0.4,0.02-1,0.05-1.3,0.02c-0.27-0.03-0.44,0.33-0.48,0.48
										c-0.1,0.35-0.21,0.79-0.72,0.57c-0.63-0.36-1.52-0.33-2.55-0.74c0.15,0.32,0.08,0.59,0.24,0.94
										c-0.91-0.22-1.15-0.69-2.02-0.99c0.14,0.32,0.11,0.56,0.3,0.87c-0.74-0.13-1.42-0.79-2.44-1.06
										c-0.03,0.01-0.06,0.02-0.09,0.03c-0.37,0.11-0.71,0.22-1.02,0.31c0.72,0.82,1.32,1.82,1.6,3.04c0,0-0.51,0.01-1.26-0.25
										c0.22,0.66,0.35,1.38,0.36,2.14c0,0-0.57-0.11-1.36-0.59c0.07,0.72,0.04,1.47-0.11,2.24c0,0-0.66-0.27-1.44-1.07
										c-0.09,0.74-0.28,1.5-0.6,2.25c0,0-0.6-0.41-1.22-1.37c-0.26,0.74-0.62,1.48-1.11,2.18c0,0-0.66-0.69-1.11-2.09
										c-0.6,0.89-1.16,1.28-1.16,1.28c-0.32-0.75-0.51-1.5-0.6-2.25c-0.78,0.8-1.44,1.07-1.44,1.07
										c-0.15-0.77-0.18-1.52-0.11-2.24c-0.78,0.49-1.36,0.59-1.36,0.59c0.01-0.76,0.15-1.47,0.36-2.14
										c-0.76,0.26-1.26,0.25-1.26,0.25c0.28-1.24,1.1-2.52,1.64-3.09h0c-0.27-0.08-0.55-0.17-0.86-0.27
										c-0.03-0.01-0.06-0.02-0.09-0.03c-1.02,0.27-1.71,0.93-2.44,1.06c0.2-0.3,0.16-0.55,0.3-0.87
										c-0.87,0.31-1.1,0.77-2.01,0.99c0.16-0.35,0.09-0.62,0.24-0.94c-0.85,0.41-2.01,0.7-2.52,0.81
										c-0.57,0.12-0.6-0.73-0.79-0.91c-0.08-0.08-0.54-0.12-0.73-0.09c-0.28,0.05-0.83,0.02-1.24,0.02
										c-0.41-0.01-0.69,0.12-0.91,0.28c-0.3,0.22-0.16,0.81-0.03,0.91c0.14,0.1,0.05,0.09-0.09,0.05
										c-0.24-0.13-0.3-0.29-0.34-0.43c0-0.02-0.01-0.04-0.01-0.06c-0.11-0.01-0.31-0.02-0.46,0.01
										c-0.17,0.04-0.31,0.15-0.31,0.26c0,0.16,0.07,0.63,0.37,0.68c0.29,0.05,0.36-0.09,0.72-0.09c-0.21,0.11-0.57,0.32-0.45,0.6
										c0.05,0.11,0.14,0.23,0.28,0.39c0.12,0.13,0.32,0.11,0.46,0c0.14-0.11,0.24-0.2,0.42-0.24c-0.11,0.09-0.15,0.21-0.18,0.3
										c-0.07,0.17-0.07,0.38,0.05,0.46c0.17,0.11,0.45,0.19,0.6,0.2c0.28,0.04,0.36-0.22,0.39-0.37c0.04-0.19,0.04-0.35,0-0.51
										c0.18,0.09,0.31,0.61,0.03,1c-0.13,0.18-0.39,0.26-0.9,0.05c-0.27-0.11-0.49-0.22-0.43-0.51c0.02-0.08,0.05-0.17,0.08-0.25
										c-0.06,0.05-0.09,0.13-0.21,0.19c-0.2,0.11-0.44,0-0.68-0.3c-0.28-0.34-0.22-0.49-0.18-0.59c0.04-0.09,0.09-0.13,0.16-0.18
										c-0.14,0.05-0.26,0.03-0.32,0.02c-0.23-0.03-0.31-0.16-0.42-0.51c-0.11-0.37-0.14-0.47-0.01-0.68
										c0.1-0.16,0.67-0.26,0.97-0.2c0.01-0.21,0.07-0.43,0.28-0.55c0.21-0.12,0.76-0.39,1.29-0.31c0.37,0.06,0.97,0,1.15-0.02
										c0.18-0.02,1.5-0.26,2.38-0.94c-0.46,0.05-0.55-0.23-0.93-0.27c0.49-0.5,1.28-0.6,1.67-1.03
										c-0.35-0.04-0.65-0.32-0.91-0.36c0.77-0.43,1.28-0.68,1.83-1.26c0.01-0.01,0.21-0.24,0.29-0.34
										c-0.25-0.65-0.4-1.37-0.45-2.13c-0.01-0.18-0.02-0.37-0.04-0.57c-0.19,0.21-0.58,0.42-1.21,0.65
										c-0.3-0.72-0.15-2.06,0.22-3.09c-0.54,1.06-1.14,1.74-2.18,2.05c-0.25-0.77-0.1-2.13,0.26-3.14
										c-0.69,1.15-1.42,1.73-2.64,2.16c-0.1-0.94,0-2.18,0.45-3.31c-0.94,0.9-1.74,1.2-2.8,1.4c-0.07-1.12,0.2-2.12,0.77-3.37
										c-0.68,0.83-2.09,1.4-3.15,1.51c0.08-0.97,0.76-2.29,1.15-3.06c-1,0.72-2.07,1.23-3.22,1.29c0.14-1.1,0.64-2.28,1.48-3.24
										c-0.99,0.74-2.51,1.13-3.65,0.98c0.28-1.2,1.02-2.38,2.02-3c-0.58,0.11-1.63,0.35-2.84,0.24c-0.71,2.38-1.1,4.9-1.11,7.51
										c-0.6-0.47-1.02-0.59-1.44-1c0.08,0.57,0.15,0.87,0.22,1.57c0.11,1.26,0.59,1.98,1.38,2.43c0.04,0.36,0.08,0.71,0.14,1.07
										c-0.58-0.38-1.37-0.61-2.4-0.6c0.63,2.05,1.53,2.2,2.74,2.4c0.04,0.19,0.08,0.37,0.13,0.56c-0.64-0.17-1.41-0.17-2.29,0.07
										c0.61,0.94,1.45,1.51,2.79,1.71c0,0.01,0,0.01,0.01,0.02c-0.83-0.07-1.72,0.05-2.43,0.42c1.02,0.88,2.02,1.21,2.97,1.11
										c0.05,0.12,0.1,0.25,0.15,0.37c-0.76,0.2-1.42,0.59-1.79,0.96c0.8,0.25,1.61,0.39,2.35,0.31c0.01,0.02,0.02,0.04,0.03,0.06
										c-0.43,0.33-0.81,0.86-1.04,1.7c0.57-0.14,1.15-0.18,1.73-0.35c0.12,0.21,0.24,0.43,0.36,0.64
										c-0.3,0.58-0.41,1.31-0.23,2.12c0.49-0.11,0.89-0.3,1.22-0.55c0.11,0.17,0.23,0.34,0.35,0.5
										c-0.12,0.93,0.09,1.86,0.65,2.49c0.22-0.25,0.4-0.49,0.55-0.73c1.2-1.83,0.47-3.15,0.5-4.34c0.01-0.02,0.02-0.05,0.03-0.07
										c0.1,1.41,1.33,2.81-0.11,4.52c-0.03,0.03-0.05,0.06-0.08,0.09c4.88,5.67,12.1,9.26,20.17,9.26
										c11.45,0,21.21-7.23,24.97-17.38l1.21-0.52l-0.09,0.53l1.74-1.51l-2.26,0.47l0.48,0.25l-0.93,0.38
										c0.16-0.47,0.32-0.94,0.46-1.42l1.33-0.73l-0.04,0.53l1.6-1.66l-2.2,0.67l0.5,0.2l-1.06,0.58
										c0.14-0.52,0.27-1.04,0.38-1.58l1.01-0.64l-0.04,0.53L73.61,48.69z"/>
								</g>
							</g>
							<path class="st0" d="M61.45,57.11c0.11,0,0.27,0,0.39,0.03c0.17,0.04,0.31,0.16,0.3,0.27c0,0.16-0.09,0.62-0.38,0.67
								c-0.29,0.04-0.35-0.1-0.72-0.11c0.21,0.12,0.56,0.33,0.43,0.61c-0.05,0.11-0.14,0.23-0.29,0.38
								c-0.12,0.12-0.32,0.1-0.46-0.01c-0.14-0.11-0.24-0.21-0.41-0.25c0.1,0.09,0.14,0.21,0.17,0.3c0.06,0.17,0.06,0.38-0.06,0.46
								c-0.17,0.11-0.45,0.17-0.6,0.19c-0.28,0.03-0.36-0.23-0.38-0.38c-0.03-0.19-0.03-0.36,0.01-0.51c-0.18,0.09-0.32,0.6-0.06,1
								c0.12,0.18,0.38,0.27,0.9,0.08c0.28-0.1,0.5-0.2,0.45-0.49c-0.01-0.09-0.05-0.17-0.07-0.25c0.05,0.06,0.09,0.13,0.2,0.19
								c0.2,0.12,0.44,0.01,0.69-0.28c0.28-0.33,0.23-0.49,0.19-0.58c-0.03-0.09-0.08-0.13-0.15-0.18c0.14,0.06,0.26,0.04,0.32,0.03
								c0.23-0.03,0.32-0.15,0.44-0.5c0.12-0.36,0.16-0.47,0.03-0.68c-0.05-0.09-0.24-0.16-0.45-0.2l7.73-6.1l0.02,0.54l1.39-1.84
								l-2.11,0.93l0.52,0.14l-7.79,6.16l0,0l-0.18,0.15c-0.01,0-0.02,0-0.04,0"/>
						</g>
						<polyline class="st0" points="61.32,56.47 66.16,46.68 66.41,47.15 66.88,44.9 65.37,46.64 65.9,46.55 61.08,56.29 						"/>
					</g>
					<g>
						<path class="st0" d="M60.11,57.55c0.14,0.26,0.15,0.69,0.07,0.9c0.51-0.08,0.6-0.57,0.63-0.82
							C60.66,57.45,60.31,57.43,60.11,57.55z"/>
						<path class="st0" d="M60.01,57.6c-0.3-0.02-0.41-0.17-0.46-0.32c-0.06-0.15-0.22-0.24-0.22-0.01c0,0.22,0,0.32,0.12,0.38
							C59.57,57.71,59.8,57.73,60.01,57.6z"/>
						<path class="st0" d="M60.05,58.54c-0.1-0.14-0.16-0.3-0.19-0.46c-0.06,0.11-0.17,0.5-0.2,0.77c-0.01,0.06,0,0.09,0.16,0.09
							c0.16,0.01,0.36-0.05,0.5-0.16C60.23,58.72,60.12,58.65,60.05,58.54z"/>
						<g>
							<path class="st0" d="M65.95,48.28l0.54-0.03l-3.02,4.59c-0.35,0.72-0.7,1.41-1,2.03c0.02-0.02,0.03-0.03,0.05-0.05l4.22-6.4
								l0.19,0.5l0.74-2.18L65.95,48.28z"/>
							<path class="st0" d="M64.8,52.3l5.49-6.95l0.15,0.52l0.92-2.11l-1.83,1.39l0.54,0.02l-4.97,6.3
								c-0.39,0.59-0.8,1.22-1.19,1.81l0.01,0.01C64.19,52.96,64.49,52.63,64.8,52.3z"/>
							<path class="st0" d="M64.14,54.36c0.46-0.36,0.94-0.74,1.41-1.12l4.57-4.23l0.06,0.53l1.24-1.95l-2.03,1.1l0.53,0.1
								l-4.59,4.25C64.93,53.51,64.52,53.95,64.14,54.36z"/>
							<path class="st0" d="M69.22,53.37l-6.44,3.23c-0.11,0.09-0.2,0.16-0.26,0.21c0.05,0.04,0.08,0.08,0.11,0.12
								c0.01,0.02,0.02,0.04,0.03,0.06l6.69-3.35l-0.09,0.53L71,52.64l-2.25,0.48L69.22,53.37z"/>
							<path class="st0" d="M59.49,60.19c-0.1-0.03-0.18-0.08-0.25-0.15l-1.15,2.39l0.01,0l-0.42,0.14l-1.36,2.61l0.66-0.2
								l0.24,0.65l1.29-2.65l-0.15-0.43L59.49,60.19z"/>
							<path class="st0" d="M63.98,55.65c0.44-0.22,0.95-0.48,1.47-0.74l4.28-2.8l-0.03,0.54l1.55-1.71l-2.18,0.74l0.5,0.19
								l-4.66,3.05C64.58,55.17,64.27,55.42,63.98,55.65z"/>
							<path class="st0" d="M58.97,59.55c-0.03-0.13-0.04-0.26-0.03-0.39l-1.53,1.67l-0.45,0.04l-0.04,0.04l0,0l-2.13,2.13l0.1,0
								l-0.01,0.01l0.03-0.01L55.43,63l0.09,0.52l1.76-2.32l0.34-0.07L58.97,59.55z"/>
							<path class="st0" d="M61.79,56.23c0.19-0.15,0.46-0.36,0.78-0.62l7.52-8.22l0.11,0.53l1.08-2.04l-1.93,1.25l0.53,0.06
								L62,55.8C61.92,55.95,61.85,56.1,61.79,56.23z"/>
							<path class="st0" d="M55.06,61.84l2.8-1.97c0.32-0.35,0.67-0.73,0.8-0.87l-3.5,2.31l0,0.01l-0.44-0.09l-0.26,0.16l-2.25,1.4
								l0.63,0.13l0.08,0.47l1.81-1.56L55.06,61.84z"/>
							<path class="st0" d="M52.74,62.1l1.12-0.7l1.05-0.71l0.36,0.07c0,0,2.55-1.57,3.17-1.98c0.03-0.02,0.05-0.03,0.05-0.03h0
								c0.01,0,0.01-0.01,0.02-0.01l-3.35,1.67l-0.42-0.13l-2.66,1.26l0.6,0.22L52.74,62.1z"/>
						</g>
					</g>
				</g>
				<g>
					<path class="st0" d="M28.29,57.08c-0.3-0.06-0.87,0.04-0.97,0.2c-0.14,0.21-0.1,0.31,0.01,0.68c0.11,0.35,0.19,0.48,0.42,0.51
						c0.06,0.01,0.18,0.03,0.32-0.02c-0.07,0.05-0.12,0.08-0.16,0.18c-0.04,0.09-0.1,0.25,0.18,0.59c0.24,0.29,0.48,0.41,0.68,0.3
						c0.11-0.06,0.15-0.13,0.21-0.19c-0.03,0.08-0.07,0.16-0.08,0.25c-0.06,0.29,0.16,0.4,0.43,0.51c0.52,0.2,0.77,0.13,0.9-0.05
						c0.28-0.39,0.15-0.91-0.03-1c0.04,0.16,0.03,0.32,0,0.51c-0.03,0.15-0.11,0.4-0.39,0.37c-0.15-0.02-0.43-0.09-0.6-0.2
						c-0.12-0.08-0.12-0.29-0.05-0.46c0.03-0.09,0.07-0.21,0.18-0.3c-0.18,0.04-0.28,0.13-0.42,0.24c-0.14,0.11-0.34,0.13-0.46,0
						c-0.15-0.16-0.24-0.28-0.28-0.39c-0.12-0.28,0.24-0.49,0.45-0.6c-0.36,0-0.43,0.14-0.72,0.09c-0.29-0.05-0.37-0.52-0.37-0.68
						c0-0.11,0.14-0.22,0.31-0.26c0.15-0.04,0.35-0.02,0.46-0.01"/>
					<path class="st0" d="M21.66,54.06c0.07,0.01,0.05,0-0.02-0.02c-0.8-0.45-1.37-0.6-2.48-0.45C20.2,53.66,20.93,53.8,21.66,54.06
						z"/>
					<path class="st0" d="M22.16,59.71c0.12-0.77,0.63-1.69,1.38-2.31c0.53-0.43,0.82-0.59,0.38-0.13
						C23.26,57.97,22.48,59.09,22.16,59.71z"/>
					<path class="st0" d="M23.8,61.82c-0.29-0.73-0.04-1.89,0.28-2.65c0.22-0.53,0.76-1.33,0.92-1.4
						C24.4,58.68,23.77,61.12,23.8,61.82z"/>
					<path class="st0" d="M21.39,51.7c-0.06-0.27-0.32-0.45-0.6-0.4c-0.27,0.05-0.45,0.32-0.4,0.6c0.05,0.27,0.32,0.45,0.6,0.4
						C21.27,52.24,21.45,51.98,21.39,51.7z"/>
					<path class="st0" d="M25.8,52.4c0.02-0.76-0.1-1.54-0.01-2.43c-1.51,1.1-2.03,3.03-1.4,4.38c-0.06-0.01-0.13-0.01-0.19,0
						c-0.28,0.06-0.47,0.33-0.41,0.62c0.06,0.29,0.33,0.47,0.62,0.41c0.28-0.06,0.47-0.34,0.41-0.62c-0.03-0.14-0.11-0.26-0.23-0.34
						c-0.25-1.19-0.04-2.69,0.58-3.32c-0.2,0.75-0.55,2.31-0.32,3.76c0.25-0.28,0.43-0.55,0.57-0.82c0.03,0.23,0.08,0.46,0.18,0.71
						c0.03-1.15,0.42-2.29,1.61-3.08c-0.87,1.11-1.38,2.4-1.48,3.38c0.64-0.81,2.08-1.05,2.18-4.21
						C27.18,51.07,26.3,51.61,25.8,52.4z"/>
					<path class="st0" d="M26.8,55.64c-0.06-0.3-0.35-0.49-0.65-0.43c-0.3,0.06-0.49,0.35-0.43,0.65c0.06,0.3,0.35,0.49,0.65,0.43
						C26.67,56.23,26.86,55.94,26.8,55.64z"/>
					<path class="st0" d="M26.61,57.31c-0.06-0.3-0.35-0.49-0.65-0.43c-0.3,0.06-0.49,0.35-0.43,0.65c0.06,0.3,0.35,0.49,0.65,0.43
						C26.48,57.89,26.67,57.6,26.61,57.31z"/>
					<path class="st0" d="M23.43,49.2c-1.11,0.93-1.42,2.1-1.31,3.13c-0.04,0-0.09,0-0.13,0c-0.23,0.05-0.38,0.27-0.33,0.5
						c0.05,0.23,0.27,0.38,0.5,0.33c0.05-0.01,0.1-0.03,0.14-0.06c0.1,0.3,0.24,0.57,0.41,0.81c-0.1-0.35-0.17-0.73-0.21-1.12
						c0-0.04,0.01-0.09,0-0.13c0-0.01-0.01-0.02-0.01-0.03c-0.06-0.88,0.08-1.78,0.56-2.43c-0.15,0.95-0.38,2.8-0.16,3.94
						C23.21,52.93,24.96,52.4,23.43,49.2z"/>
					<path class="st0" d="M27.89,56.39c-0.05-0.23-0.27-0.38-0.5-0.33c-0.23,0.05-0.38,0.27-0.33,0.5c0.05,0.23,0.27,0.38,0.5,0.33
						C27.79,56.84,27.94,56.62,27.89,56.39z"/>
					<path class="st0" d="M25.53,56.31c-0.04-0.21-0.25-0.35-0.46-0.31c-0.21,0.04-0.35,0.25-0.31,0.46
						c0.04,0.21,0.25,0.35,0.46,0.31C25.44,56.73,25.57,56.52,25.53,56.31z"/>
					<path class="st0" d="M20.15,50.89c-0.03-0.18-0.18-0.3-0.36-0.3c-0.55-0.74-1.35-1.54-2.67-1.68c0.73,0.34,1.82,1.01,2.58,1.7
						c-0.18,0.05-0.3,0.23-0.27,0.41c0.03,0.2,0.22,0.33,0.42,0.3C20.05,51.28,20.18,51.09,20.15,50.89z"/>
					<path class="st0" d="M20.16,48.38c-0.05-0.25-0.29-0.41-0.54-0.36c-0.01,0-0.02,0.01-0.03,0.01c-0.3-1.17-0.59-2.09-1.93-3.01
						c0.67,0.86,1.44,2.1,1.87,3.02c-0.2,0.08-0.32,0.3-0.28,0.52c0.05,0.25,0.29,0.41,0.54,0.36
						C20.05,48.87,20.21,48.63,20.16,48.38z"/>
					<path class="st0" d="M21.52,53c-0.03-0.2-0.22-0.33-0.42-0.3c-0.1,0.02-0.18,0.07-0.23,0.14c-1.18-1.04-1.99-1.05-2.61-1.08
						c0.38,0.13,1.73,0.52,2.58,1.13c-0.03,0.07-0.05,0.15-0.04,0.23c0.03,0.2,0.22,0.33,0.42,0.3C21.42,53.38,21.55,53.2,21.52,53z
						"/>
					<path class="st0" d="M22.51,54.47c-0.06-0.28-0.33-0.47-0.62-0.41c-0.28,0.06-0.47,0.33-0.41,0.62
						c0.06,0.29,0.34,0.47,0.62,0.41C22.38,55.03,22.57,54.75,22.51,54.47z"/>
					<path class="st0" d="M23.27,55.37c-0.03-0.2-0.22-0.33-0.42-0.3c-0.12,0.02-0.22,0.1-0.27,0.21c-1.03-0.13-2.14,0.01-3.08,0.53
						c1.05-0.24,2.16-0.47,3.06-0.47l0,0c-0.01,0.05-0.02,0.1-0.01,0.15c0.03,0.2,0.22,0.33,0.42,0.3
						C23.17,55.76,23.3,55.57,23.27,55.37z"/>
					<path class="st0" d="M24.33,55.99c-0.05-0.26-0.3-0.42-0.56-0.37c-0.25,0.05-0.42,0.3-0.37,0.56c-0.01,0-0.02,0-0.03,0
						c-0.76-0.03-2.03,0.17-2.8,1.09c0.8-0.47,2.06-0.95,2.82-1.05c0.01,0,0.01,0,0.02,0c0.06,0.24,0.3,0.39,0.55,0.34
						C24.21,56.5,24.38,56.25,24.33,55.99z"/>
					<path class="st0" d="M22.39,46.67c-1.71,0.75-2.51,2.88-1.63,4.45C21.56,49.98,23.07,49.73,22.39,46.67z M20.76,51.04
						c-0.21-0.86,0.33-3.15,1.1-3.62C21.37,48.53,21.16,49.56,20.76,51.04z"/>
					<path class="st0" d="M20.65,43.47c-0.55,0.22-1.32,0.99-1.67,1.99c0.13,0.16,0.25,0.32,0.35,0.49
						c0.19-0.74,0.61-1.59,1.03-1.95c-0.27,0.47-0.66,1.5-0.84,2.31c0.19,0.45,0.28,0.92,0.26,1.37
						C20.82,46.72,21.18,45.07,20.65,43.47z"/>
					<path class="st0" d="M30.99,58.38c2.17,1.63,3.4,3.89,3.71,5.72c-0.27-0.2-0.78-0.41-1.1-0.35c-0.28-1.92-1.29-3.48-2.86-4.74
						C30.81,58.72,30.9,58.52,30.99,58.38z"/>
					<g>
						<path class="st0" d="M28.95,57.82c0.15-0.18,0.5-0.21,0.71-0.08c-0.14,0.26-0.15,0.69-0.07,0.9
							C29.07,58.56,28.98,58.08,28.95,57.82z"/>
						<path class="st0" d="M29.75,57.79c0.3-0.02,0.41-0.17,0.47-0.32c0.05-0.14,0.22-0.24,0.22-0.02c0,0.22,0,0.32-0.12,0.38
							C30.19,57.9,29.97,57.92,29.75,57.79z"/>
						<path class="st0" d="M29.91,58.26c-0.03,0.16-0.09,0.31-0.19,0.46c-0.08,0.11-0.19,0.18-0.27,0.25
							c0.14,0.1,0.33,0.16,0.5,0.16c0.16-0.01,0.17-0.03,0.16-0.09C30.07,58.76,29.97,58.37,29.91,58.26z"/>
					</g>
				</g>
			</g>
		</g>
	</g>
	<g>
		<g>
			<g>
				<g>
					<g>
						<path class="st0" d="M105,12.68h7.46v1.42h-2.39v8.62c0,4.1,1.99,5.92,4.53,5.92c2.42,0,4.53-1.48,4.53-6.12V14.1h-2.34v-1.42
							h7.03v1.42h-2.31v8.84c0,4.58-2.5,7.11-7.03,7.11c-4.24,0-7.18-1.96-7.18-7.65V14.1H105V12.68z"/>
						<path class="st0" d="M126.43,28.21c0,0.99-0.8,1.79-1.8,1.79c-0.99,0-1.8-0.8-1.8-1.79c0-0.99,0.8-1.8,1.8-1.8
							C125.63,26.42,126.43,27.22,126.43,28.21z"/>
						<path class="st0" d="M129.98,24.6h1.43v2.17c1.14,1.36,2.25,1.96,3.45,1.96c1.6,0,2.85-1.19,2.85-2.73
							c0-2.88-3.95-3.45-6.26-5.75c-1.11-1.11-1.54-2.28-1.54-3.44c0-2.25,1.88-4.41,4.84-4.41c1.23,0,2.34,0.22,3.31,0.85v-0.91
							h1.42v4.64h-1.42v-1.85c-0.71-0.91-1.8-1.45-2.96-1.45c-1.91,0-2.73,1.14-2.73,2.45c0,2.67,3.9,3.07,6.35,5.52
							c1.08,1.08,1.45,2.05,1.45,3.44c0,2.9-2.05,4.92-5.13,4.92c-1.31,0-2.34-0.4-3.62-1.2v1.25h-1.43V24.6z"/>
						<path class="st0" d="M145.63,28.21c0,0.99-0.8,1.79-1.8,1.79c-0.99,0-1.79-0.8-1.79-1.79c0-0.99,0.8-1.8,1.79-1.8
							C144.82,26.42,145.63,27.22,145.63,28.21z"/>
					</g>
					<g>
						<g>
							<path class="st0" d="M106.87,44.47c1.42-1.25,3.11-1.96,4.53-1.96c2.31,0,3.73,1.59,3.73,4.18v4.87
								c0,1.19,0.51,1.93,1.22,1.93c0.22,0,0.97-0.11,1.23-0.17v0.8c-0.88,0.62-1.77,0.97-2.6,0.97c-0.91,0-1.54-0.51-2.16-1.77
								c-1.43,1.05-2.45,1.77-3.48,1.77c-1.57,0-2.76-1.4-2.76-3.13c0-1.76,0.97-2.76,3.3-3.33l2.62-0.65v-1.59
								c0-1.39-0.43-2.36-2-2.36c-0.91,0-1.94,0.4-3.36,1.28L106.87,44.47z M109.04,51.62c0,0.91,0.65,1.59,1.54,1.59
								c0.57,0,1.2-0.28,1.94-0.88v-3.19C110.03,49.74,109.04,50.45,109.04,51.62z"/>
							<path class="st0" d="M118.35,53.58h2.17v-9.56h-2.17v-1.17h4.79v1.34c1.4-1.02,2.82-1.68,4.41-1.68
								c1.88,0,3.28,1.19,3.28,3.47v7.6h2.11v1.16h-6.6v-1.16h1.88v-7c0-1.62-0.88-2.47-2.11-2.47c-0.89,0-1.97,0.45-2.96,1.25v8.22
								h1.97v1.16h-6.75V53.58z"/>
							<path class="st0" d="M142.4,53.58h-1.14c-2.82,0-4.84-1.34-4.84-4.98c0-2.9,1.19-4.58,3.19-4.58c0.91,0,1.91,0.45,2.79,1.34
								V53.58z M140.3,37.19h2.11v6.83c-1.17-0.99-2.42-1.51-3.62-1.51c-2.88,0-5.3,2.76-5.3,6.09c0,3.75,2.68,6.14,6.81,6.14h6.84
								v-1.16h-2.11V36.03h-4.73V37.19z"/>
						</g>
						<g>
							<path class="st0" d="M156.4,53.32h2.36v-14.2h-2.36V37.7h7.49v1.42h-2.36v14.2h2.36v1.42h-7.49V53.32z"/>
							<path class="st0" d="M165.6,53.58h2.11v-9.56h-2.11v-1.17h4.73v1.37c1.82-0.97,3.19-1.71,4.7-1.71
								c1.37,0,2.48,0.74,2.93,1.99c1.22-0.94,3.19-1.99,4.78-1.99c2.22,0,3.42,1.42,3.42,3.98v7.09h2.08v1.17h-6.7v-1.17h2v-6.32
								c0-2.05-0.71-3.02-2.19-3.02c-0.89,0-2.05,0.54-3.11,1.28v8.05h2.08v1.17h-6.69v-1.17h1.99v-5.95c0-2.02-0.28-3.38-2.14-3.38
								c-1.08,0-1.82,0.46-3.16,1.28v8.05h2.02v1.17h-6.75V53.58z"/>
							<path class="st0" d="M189.33,53.58h2.11v-9.56h-2.11v-1.17h4.73v1.37c1.83-0.97,3.19-1.71,4.7-1.71
								c1.37,0,2.47,0.74,2.93,1.99c1.22-0.94,3.19-1.99,4.79-1.99c2.22,0,3.41,1.42,3.41,3.98v7.09h2.08v1.17h-6.69v-1.17h1.99
								v-6.32c0-2.05-0.71-3.02-2.19-3.02c-0.88,0-2.05,0.54-3.1,1.28v8.05h2.08v1.17h-6.69v-1.17h1.99v-5.95
								c0-2.02-0.28-3.38-2.14-3.38c-1.08,0-1.82,0.46-3.16,1.28v8.05h2.02v1.17h-6.75V53.58z"/>
							<path class="st0" d="M212.96,53.58h2.08v-9.56h-2.08v-1.17h4.7v10.73h2.02v1.17h-6.72V53.58z M217.72,39.54
								c0,0.88-0.74,1.62-1.62,1.62c-0.88,0-1.62-0.74-1.62-1.62c0-0.88,0.74-1.62,1.62-1.62
								C216.98,37.92,217.72,38.66,217.72,39.54z"/>
							<path class="st0" d="M223.4,47.03c0-2.16,0.97-3.47,2.59-3.47c1.59,0,2.51,1.34,2.51,3.61c0,2.16-0.97,3.47-2.51,3.47
								C224.36,50.65,223.4,49.28,223.4,47.03z M232.14,42.85h-3.7c-0.37,0-0.71-0.08-1.11-0.17c-0.42-0.08-0.91-0.17-1.62-0.17
								c-2.96,0-5.02,1.85-5.02,4.55c0,2.28,1.34,3.81,3.94,4.5v0.06l-0.43,0.08c-1.4,0.37-2.02,1.03-2.02,1.85
								c0,0.71,0.51,1.4,1.45,1.99c-2.39,0.82-3.5,1.82-3.5,2.98c0,1.48,2.13,3.31,5.87,3.31c3.62,0,5.98-1.53,5.98-3.93
								c0-0.74-0.17-1.28-0.79-1.91c-1.83-1.82-6.52-1.79-6.52-3.22c0-0.17,0.05-0.23,0.2-0.37c0.86-0.85,2.97-0.2,5.1-2.33
								c0.83-0.83,1.25-2.02,1.25-3.13c0-1.08-0.4-2.05-1.19-2.93h2.13V42.85z M224.62,55.97c3.84,1.08,5.12,1.65,5.12,2.7
								c0,0.48-0.37,0.97-0.94,1.17c-0.62,0.23-1.71,0.4-2.71,0.4c-2.05,0-3.42-0.8-3.42-1.97
								C222.68,57.45,223.19,56.85,224.62,55.97z"/>
							<path class="st0" d="M233.26,53.58h2.14v-9.56h-2.14v-1.17h4.76v1.99h0.06c1.42-1.76,2.13-2.33,2.9-2.33
								c0.71,0,1.34,0.34,2.02,1.14c-0.23,1.19-0.59,2.16-1.08,2.93c-0.68-1.25-1.08-1.68-1.88-1.68c-0.77,0-1.37,0.51-2.02,1.42
								v7.26h2.13v1.17h-6.9V53.58z"/>
							<path class="st0" d="M249.83,49.14v3.19c-0.74,0.59-1.37,0.88-1.94,0.88c-0.88,0-1.54-0.68-1.54-1.6
								C246.35,50.45,247.35,49.74,249.83,49.14z M244.47,45.3c1.42-0.88,2.45-1.28,3.36-1.28c1.57,0,1.99,0.97,1.99,2.36v1.59
								l-2.62,0.66c-2.34,0.57-3.31,1.56-3.31,3.33c0,1.73,1.2,3.13,2.76,3.13c1.03,0,2.05-0.71,3.48-1.76
								c0.63,1.25,1.25,1.76,2.17,1.76c0.82,0,1.7-0.34,2.59-0.97v-0.8c-0.26,0.06-1,0.17-1.23,0.17c-0.71,0-1.23-0.74-1.23-1.93
								v-4.87c0-2.59-1.42-4.18-3.73-4.18c-1.42,0-3.1,0.71-4.53,1.96L244.47,45.3z"/>
							<path class="st0" d="M254.63,44.02l4.27-4.41v3.24h3.33v1.17h-3.33v6.89c0,1.88,0.51,2.76,1.6,2.76c1.14,0,1.71-0.91,2-0.91
								c0.17,0,0.28,0.22,0.28,0.37c0,0.32-1.06,1.97-3.13,1.97c-2.16,0-3.36-1.4-3.36-3.95v-7.11H254.63z"/>
							<path class="st0" d="M263.88,53.58h2.08v-9.56h-2.08v-1.17h4.7v10.73h2.03v1.17h-6.72V53.58z M268.64,39.54
								c0,0.88-0.74,1.62-1.63,1.62c-0.88,0-1.62-0.74-1.62-1.62c0-0.88,0.74-1.62,1.62-1.62C267.9,37.92,268.64,38.66,268.64,39.54
								z"/>
							<path class="st0" d="M274.32,48.8c0-3.21,1.37-5.12,3.62-5.12c2.28,0,3.62,1.9,3.62,5.12c0,3.22-1.34,5.13-3.62,5.13
								C275.69,53.92,274.32,52.02,274.32,48.8z M271.38,48.8c0,3.53,2.87,6.29,6.55,6.29c3.67,0,6.55-2.76,6.55-6.29
								c0-3.53-2.88-6.28-6.55-6.28C274.26,42.51,271.38,45.27,271.38,48.8z"/>
							<path class="st0" d="M285.42,53.58h2.16v-9.56h-2.16v-1.17h4.79v1.34c1.39-1.03,2.82-1.68,4.41-1.68
								c1.88,0,3.28,1.19,3.28,3.47v7.6H300v1.17h-6.61v-1.17h1.87v-7c0-1.62-0.88-2.47-2.11-2.47c-0.88,0-1.96,0.46-2.96,1.25v8.22
								h1.96v1.17h-6.75V53.58z"/>
						</g>
					</g>
					<g>
						<path class="st0" d="M167.3,28.01c-1.65,1.36-3.76,2.05-6.18,2.05c-5.1,0-8.66-3.87-8.66-8.68c0-5.2,3.76-9.05,8.92-9.05
							c1.43,0,2.79,0.26,4.1,0.74l0.2-0.97h1.06v4.98h-1.25c-0.49-2.1-2.02-3.33-4.22-3.33c-3.28,0-5.47,2.87-5.47,7.22
							c0,4.58,2.48,7.65,6.18,7.65c1.66,0,3.36-0.62,5.33-2.07V28.01z"/>
						<path class="st0" d="M168.78,28.55h2.08v-9.56h-2.08v-1.17h4.7v10.73h2.02v1.17h-6.72V28.55z M173.53,14.51
							c0,0.88-0.74,1.62-1.62,1.62c-0.89,0-1.63-0.74-1.63-1.62c0-0.88,0.74-1.62,1.63-1.62C172.8,12.89,173.53,13.63,173.53,14.51z
							"/>
						<path class="st0" d="M176.75,18.99l4.27-4.41v3.24h3.33v1.17h-3.33v6.88c0,1.88,0.51,2.76,1.59,2.76c1.14,0,1.71-0.91,2-0.91
							c0.17,0,0.28,0.23,0.28,0.37c0,0.31-1.05,1.96-3.14,1.96c-2.16,0-3.36-1.39-3.36-3.96v-7.11H176.75z"/>
						<path class="st0" d="M186.01,28.55h2.08v-9.56h-2.08v-1.17h4.7v10.73h2.02v1.17h-6.72V28.55z M190.76,14.51
							c0,0.88-0.74,1.62-1.62,1.62c-0.89,0-1.63-0.74-1.63-1.62c0-0.88,0.74-1.62,1.63-1.62C190.02,12.89,190.76,13.63,190.76,14.51
							z"/>
						<path class="st0" d="M194.1,17.83h9.89v0.46l-6.75,10.27h6.07V26.5h1.03v3.22h-10.65v-0.46l6.72-10.27h-5.27v1.62h-1.03V17.83
							z"/>
						<path class="st0" d="M208.51,21.66c0.17-2.02,0.83-3.01,2.39-3.01c1.51,0,2.45,1.08,2.68,3.01H208.51z M216.37,22.83
							c-0.46-3.44-2.34-5.35-5.3-5.35c-3.28,0-5.41,2.33-5.41,5.95c0,3.33,2.19,6.63,6.24,6.63c1.62,0,2.54-0.31,4.47-1.51l0.2-1.28
							c-1.42,0.91-2.73,1.36-3.96,1.36c-2.53,0-4.1-2.39-4.1-5.8H216.37z"/>
						<path class="st0" d="M217.68,28.55h2.16v-9.56h-2.16v-1.17h4.79v1.33c1.39-1.02,2.82-1.68,4.41-1.68
							c1.88,0,3.28,1.19,3.28,3.47v7.6h2.11v1.17h-6.61v-1.17h1.88v-7c0-1.62-0.88-2.48-2.11-2.48c-0.88,0-1.96,0.45-2.96,1.25v8.22
							h1.96v1.17h-6.75V28.55z"/>
						<path class="st0" d="M233.63,26.05h0.63c0.4,1.76,1.74,2.85,3.13,2.85c1.26,0,2.11-0.63,2.11-1.56c0-1.85-2.79-1.85-4.79-3.84
							c-0.77-0.77-1.14-1.65-1.14-2.51c0-1.93,1.76-3.5,3.93-3.5c0.83,0,1.43,0.17,2.37,0.68v-0.65h0.88v3.16h-0.68
							c-0.34-1.28-1.25-2.02-2.45-2.02c-1.02,0-1.82,0.68-1.82,1.56c0,1.68,3.07,2.17,4.93,4.01c0.68,0.68,0.99,1.48,0.99,2.33
							c0,2.07-1.65,3.5-4.04,3.5c-1.14,0-1.79-0.2-3.05-0.88L234.45,30h-0.83V26.05z"/>
						<path class="st0" d="M242.66,28.55h2.16V12.17h-2.16V11h4.78v8.16c1.2-0.97,2.79-1.68,4.38-1.68c1.74,0,3.33,1.14,3.33,3.56
							v7.51h2.05v1.17h-6.66v-1.17h2v-6.97c0-1.56-0.91-2.5-2.17-2.5c-0.83,0-1.77,0.4-2.93,1.22v8.25h1.93v1.17h-6.72V28.55z"/>
						<path class="st0" d="M258.44,28.55h2.08v-9.56h-2.08v-1.17h4.7v10.73h2.02v1.17h-6.72V28.55z M263.19,14.51
							c0,0.88-0.74,1.62-1.62,1.62c-0.89,0-1.62-0.74-1.62-1.62c0-0.88,0.74-1.62,1.62-1.62C262.45,12.89,263.19,13.63,263.19,14.51
							z"/>
						<path class="st0" d="M271.17,20.33c1-1.17,1.66-1.57,2.65-1.57c2.02,0,3.3,2.11,3.3,5.49c0,2.62-1.11,4.64-3.1,4.64
							c-1.11,0-2.16-0.66-2.85-1.71V20.33z M266.44,36.66h6.8v-1.17h-2.08v-6.43c0.85,0.66,1.94,1,3.11,1
							c4.41,0,5.78-3.62,5.78-6.49c0-4.38-2.96-6.09-5.36-6.09c-0.68,0-1.28,0.11-1.85,0.34c-0.57,0.22-1.11,0.62-1.68,1.17v-1.17
							h-4.73v1.17h2.11v16.5h-2.11V36.66z"/>
					</g>
					<g>
						<g>
							<path class="st0" d="M106.59,74.53h1.42v2.16c1.14,1.36,2.25,1.97,3.45,1.97c1.59,0,2.85-1.2,2.85-2.73
								c0-2.87-3.96-3.44-6.27-5.75c-1.11-1.11-1.54-2.28-1.54-3.44c0-2.25,1.88-4.41,4.84-4.41c1.23,0,2.34,0.23,3.3,0.85v-0.91
								h1.43v4.64h-1.43v-1.85c-0.71-0.91-1.79-1.45-2.96-1.45c-1.91,0-2.74,1.14-2.74,2.44c0,2.68,3.9,3.08,6.35,5.52
								c1.08,1.08,1.45,2.05,1.45,3.44c0,2.9-2.05,4.92-5.13,4.92c-1.31,0-2.33-0.39-3.62-1.19V80h-1.42V74.53z"/>
							<path class="st0" d="M121.33,71.6c0.17-2.02,0.83-3.01,2.39-3.01c1.51,0,2.45,1.08,2.68,3.01H121.33z M129.19,72.77
								c-0.45-3.44-2.33-5.35-5.3-5.35c-3.27,0-5.41,2.33-5.41,5.95c0,3.33,2.19,6.63,6.24,6.63c1.62,0,2.54-0.32,4.47-1.51
								l0.2-1.28c-1.43,0.91-2.74,1.37-3.96,1.37c-2.53,0-4.1-2.39-4.1-5.8H129.19z"/>
							<path class="st0" d="M130.53,78.49h2.14v-9.56h-2.14v-1.17h4.76v1.99h0.06c1.42-1.76,2.14-2.33,2.9-2.33
								c0.71,0,1.34,0.34,2.02,1.14c-0.22,1.19-0.59,2.16-1.08,2.93c-0.69-1.25-1.09-1.68-1.88-1.68c-0.77,0-1.37,0.51-2.02,1.42
								v7.26h2.14v1.17h-6.89V78.49z"/>
							<path class="st0" d="M141.14,67.77h5.95v1.17h-1.57l2.85,6.72l2.42-6.72h-1.74v-1.17h4.55v1.17h-1.62l-4.02,10.98h-0.54
								l-4.73-10.98h-1.56V67.77z"/>
							<path class="st0" d="M154.78,78.49h2.08v-9.56h-2.08v-1.17h4.7v10.73h2.03v1.17h-6.72V78.49z"/>
							<path class="st0" d="M172.52,71.18h-0.83c-0.31-1.74-1.56-2.59-2.85-2.59c-1.91,0-3.19,1.39-3.19,4.44
								c0,3.5,1.34,5.38,3.82,5.38c1.94,0,3.08-1.31,3.36-1.31c0.23,0,0.4,0.51,0.4,0.71c0,0.48-1.97,2.19-4.64,2.19
								c-3.33,0-5.87-2.85-5.87-6.57c0-3.5,2.37-6,5.69-6c1,0,1.74,0.17,3.05,0.74l0.22-0.71h0.83V71.18z"/>
							<path class="st0" d="M177.47,71.6c0.17-2.02,0.83-3.01,2.39-3.01c1.51,0,2.45,1.08,2.68,3.01H177.47z M185.34,72.77
								c-0.46-3.44-2.34-5.35-5.3-5.35c-3.28,0-5.41,2.33-5.41,5.95c0,3.33,2.2,6.63,6.24,6.63c1.63,0,2.53-0.32,4.47-1.51l0.2-1.28
								c-1.42,0.91-2.73,1.37-3.96,1.37c-2.53,0-4.1-2.39-4.1-5.8H185.34z"/>
							<path class="st0" d="M187.16,75.99h0.62c0.4,1.76,1.74,2.84,3.14,2.84c1.25,0,2.11-0.63,2.11-1.57c0-1.85-2.8-1.85-4.79-3.84
								c-0.77-0.77-1.14-1.65-1.14-2.5c0-1.93,1.77-3.5,3.94-3.5c0.82,0,1.42,0.17,2.36,0.68v-0.65h0.88v3.16h-0.69
								c-0.34-1.28-1.25-2.02-2.45-2.02c-1.03,0-1.82,0.68-1.82,1.56c0,1.68,3.08,2.16,4.93,4.01c0.68,0.68,0.99,1.48,0.99,2.34
								c0,2.07-1.65,3.5-4.05,3.5c-1.14,0-1.79-0.2-3.04-0.88l-0.17,0.82h-0.82V75.99z"/>
						</g>
						<path class="st0" d="M159.54,64.45c0,0.88-0.74,1.62-1.62,1.62c-0.88,0-1.62-0.74-1.62-1.62c0-0.88,0.74-1.62,1.62-1.62
							C158.8,62.83,159.54,63.57,159.54,64.45z"/>
					</g>
				</g>
			</g>
		</g>
	</g>
</g>
</svg>
